<svg width="71" height="71" viewBox="0 0 71 71" fill="none" xmlns="http://www.w3.org/2000/svg">
<path fill-rule="evenodd" clip-rule="evenodd" d="M11.803 23.8181C11.1713 23.9189 10.526 23.9789 9.86994 23.9954V26.4026C7.6672 26.8511 6.00378 28.8035 6.00378 31.1377C6.00378 33.4951 7.70102 35.4639 9.93663 35.8863C10.3638 38.667 12.7715 40.8031 15.6692 40.8031H20.5019V43.7027H18.5688C11.6406 43.7027 6.00378 49.3396 6.00378 56.2677V63.0335C6.00378 63.568 6.43583 64 6.97032 64H45.6318C46.1663 64 46.5984 63.568 46.5984 63.0335V56.49C47.5272 56.3943 48.4464 56.2145 49.352 55.9642L46.668 62.6749C46.5491 62.9726 46.5858 63.3099 46.7656 63.5757C46.9444 63.8405 47.244 64 47.5649 64H59.1634C59.4843 64 59.7839 63.8405 59.9637 63.5757C60.1434 63.3109 60.1802 62.9726 60.0613 62.6749L57.3492 55.8956L57.4951 55.9497C59.4369 56.6775 61.0732 57.9756 62.2263 59.7037L63.8346 58.6318C62.4554 56.5635 60.4982 55.0102 58.1746 54.1403L57.786 53.9944C59.262 53.4135 60.4179 52.1299 60.764 50.5158L63.0083 40.0405C63.0691 39.7544 62.9986 39.4567 62.8149 39.2296C62.6313 39.0024 62.3549 38.87 62.063 38.87V36.7591C63.1851 36.359 63.9961 35.2958 63.9961 34.0373C63.9961 33.9339 63.9787 33.8305 63.9458 33.7319L62.0127 27.9327C61.8822 27.5374 61.513 27.2716 61.0964 27.2716C60.6799 27.2716 60.3106 27.5374 60.1802 27.9327L58.2471 33.7319C58.2142 33.8305 58.1968 33.9339 58.1968 34.0373C58.1968 33.2167 57.8537 32.4754 57.3037 31.9477C59.2707 30.3355 59.8728 28.2623 60.0516 27.1285C60.9524 26.8376 61.6628 26.1204 61.9383 25.2138C63.1281 24.8523 63.9961 23.7456 63.9961 22.4389C63.9961 21.1321 63.1281 20.0254 61.9383 19.6639C61.5768 18.4741 60.4701 17.6062 59.1634 17.6062C58.4037 17.6062 57.7174 17.9058 57.1994 18.3852C57.1964 18.3698 57.1947 18.3543 57.193 18.3388V18.3388C57.1903 18.3145 57.1877 18.2903 57.18 18.2673L55.247 12.4681C55.1165 12.0728 54.7473 11.807 54.3307 11.807C53.9141 11.807 53.5449 12.0728 53.4144 12.4681L51.4813 18.2673C51.4485 18.3659 51.4311 18.4693 51.4311 18.5727C51.4311 20.1714 52.732 21.4723 54.3307 21.4723C54.364 21.4723 54.3965 21.4678 54.4289 21.4634C54.4547 21.4598 54.4804 21.4562 54.5066 21.4549C54.3954 21.7623 54.3307 22.0929 54.3307 22.4389C54.3307 23.7456 55.1986 24.8523 56.3884 25.2138C56.6455 26.0605 57.2844 26.738 58.1011 27.0618C57.9204 27.9597 57.3898 29.4782 55.8501 30.6293C55.3436 29.7797 54.4225 29.2046 53.3641 29.2046C52.1879 29.2046 51.1778 29.9121 50.7236 30.9202C50.1978 30.175 50.1804 29.513 50.249 29.0964C51.2136 28.8364 51.9839 28.0989 52.2729 27.1469C53.4627 26.7854 54.3307 25.6787 54.3307 24.3719C54.3307 23.0652 53.4627 21.9585 52.2729 21.597C51.9114 20.4072 50.8047 19.5393 49.498 19.5393C48.1912 19.5393 47.0845 20.4072 46.7231 21.597C45.5332 21.9585 44.6653 23.0652 44.6653 24.3719C44.6653 25.6787 45.5332 26.7854 46.7231 27.1469C46.9686 27.9539 47.562 28.6054 48.3227 28.9456C48.2202 29.7691 48.3246 30.9434 49.238 32.1555C49.0698 32.3507 48.9277 32.5672 48.8166 32.8021L48.4822 31.7979C48.3507 31.4035 47.9815 31.1377 47.5649 31.1377C47.1483 31.1377 46.7791 31.4035 46.6486 31.7988L44.7156 37.598C44.6827 37.6966 44.6653 37.8001 44.6653 37.9035C44.6653 38.2437 44.7349 38.5665 44.8431 38.87H44.6653C44.3734 38.87 44.097 39.0024 43.9143 39.2286C43.7307 39.4557 43.6591 39.7534 43.721 40.0395L45.9653 50.5149C46.32 52.1667 47.5176 53.4792 49.0427 54.0398C48.198 54.2863 47.3378 54.4651 46.4679 54.5579C45.6289 48.4378 40.3797 43.7027 34.0334 43.7027H32.1003V40.8031H36.933C39.8307 40.8031 42.2383 38.667 42.6655 35.8863C44.9011 35.4639 46.5984 33.4951 46.5984 31.1377C46.5984 28.8035 44.935 26.8511 42.7322 26.4026V22.8767C42.7322 13.8415 35.864 6.44074 27.0936 6.02706C25.9193 5.97273 24.7594 6.03993 23.6283 6.22373C23.7716 6.84428 23.8751 7.48007 23.936 8.12826C24.9357 7.96614 25.962 7.90784 27.0028 7.9582C34.739 8.32259 40.7991 14.8747 40.7991 22.8757V27.2716C40.7991 27.8061 41.2312 28.2381 41.7657 28.2381C43.3643 28.2381 44.6653 29.5391 44.6653 31.1377C44.6653 32.7364 43.3643 34.0373 41.7657 34.0373C41.2312 34.0373 40.7991 34.4694 40.7991 35.0039C40.7991 37.136 39.0652 38.87 36.933 38.87H33.9474C36.3647 36.7427 37.8995 33.6362 37.8995 30.1712V25.3385H38.8661V23.4054H36.0853C34.7525 23.4054 33.5955 22.5017 33.265 21.1814L31.098 13.4781C30.9811 13.0625 30.6012 12.7745 30.1692 12.7735H30.1672C29.7352 12.7735 29.3553 13.0606 29.2374 13.4762L27.2454 20.4778C26.8143 22.2011 25.2717 23.4054 23.4943 23.4054H13.7361V25.3385H14.7026V30.1712C14.7026 33.6362 16.2375 36.7427 18.6548 38.87H15.6692C13.537 38.87 11.803 37.136 11.803 35.0039C11.803 34.4694 11.371 34.0373 10.8365 34.0373C9.23782 34.0373 7.93686 32.7364 7.93686 31.1377C7.93686 29.5391 9.23782 28.2381 10.8365 28.2381C11.371 28.2381 11.803 27.8061 11.803 27.2716V23.8181ZM58.1968 34.0373C58.1968 35.2958 59.0078 36.359 60.1299 36.7591V38.87H59.0638C58.8125 37.5739 58.0876 36.6682 57.3588 36.0671C57.875 35.5442 58.1968 34.8289 58.1968 34.0373ZM53.3728 18.7032L54.3307 15.8297L55.2885 18.7032C55.2247 19.1749 54.8197 19.5393 54.3307 19.5393C53.8416 19.5393 53.4366 19.1749 53.3728 18.7032ZM57.2303 23.4054C56.6968 23.4054 56.2638 22.9724 56.2638 22.4389C56.2638 21.9053 56.6968 21.4723 57.2303 21.4723C57.7648 21.4723 58.1968 21.0403 58.1968 20.5058C58.1968 19.9723 58.6298 19.5393 59.1634 19.5393C59.6969 19.5393 60.1299 19.9723 60.1299 20.5058C60.1299 21.0403 60.5619 21.4723 61.0964 21.4723C61.63 21.4723 62.063 21.9053 62.063 22.4389C62.063 22.9724 61.63 23.4054 61.0964 23.4054C60.5619 23.4054 60.1299 23.8375 60.1299 24.3719C60.1299 24.9055 59.6969 25.3385 59.1634 25.3385C58.6298 25.3385 58.1968 24.9055 58.1968 24.3719C58.1968 23.8375 57.7648 23.4054 57.2303 23.4054ZM61.0964 31.2943L62.0543 34.1678C61.9905 34.6395 61.5855 35.0039 61.0964 35.0039C60.6074 35.0039 60.2024 34.6395 60.1386 34.1678L61.0964 31.2943ZM51.4311 33.0708C51.9656 33.0708 52.3976 32.6387 52.3976 32.1043C52.3976 31.5707 52.8306 31.1377 53.3641 31.1377C53.8977 31.1377 54.3307 31.5707 54.3307 32.1043C54.3307 32.6387 54.7627 33.0708 55.2972 33.0708C55.8307 33.0708 56.2638 33.5038 56.2638 34.0373C56.2638 34.5709 55.8307 35.0039 55.2972 35.0039C54.7627 35.0039 54.3307 35.4359 54.3307 35.9704C54.3307 36.5039 53.8977 36.9369 53.3641 36.9369C52.8306 36.9369 52.3976 36.5039 52.3976 35.9704C52.3976 35.4359 51.9656 35.0039 51.4311 35.0039C50.8975 35.0039 50.4645 34.5709 50.4645 34.0373C50.4645 33.5038 50.8975 33.0708 51.4311 33.0708ZM47.5649 25.3385C47.0314 25.3385 46.5984 24.9055 46.5984 24.3719C46.5984 23.8384 47.0314 23.4054 47.5649 23.4054C48.0994 23.4054 48.5314 22.9734 48.5314 22.4389C48.5314 21.9053 48.9645 21.4723 49.498 21.4723C50.0315 21.4723 50.4645 21.9053 50.4645 22.4389C50.4645 22.9734 50.8966 23.4054 51.4311 23.4054C51.9646 23.4054 52.3976 23.8384 52.3976 24.3719C52.3976 24.9055 51.9646 25.3385 51.4311 25.3385C50.8966 25.3385 50.4645 25.7705 50.4645 26.305C50.4645 26.8386 50.0315 27.2716 49.498 27.2716C48.9645 27.2716 48.5314 26.8386 48.5314 26.305C48.5314 25.7705 48.0994 25.3385 47.5649 25.3385ZM46.6071 38.034L47.5649 35.1604L48.5228 38.034C48.459 38.5056 48.054 38.87 47.5649 38.87C47.0758 38.87 46.6709 38.5056 46.6071 38.034ZM36.933 56.2677V62.0669H15.6692V56.2677H36.933ZM16.6357 30.1712V25.3385H23.4943C26.1609 25.3385 28.4739 23.532 29.1127 20.9755L30.1614 17.2901L31.3967 21.6772C31.9254 23.794 33.7956 25.2747 35.9665 25.3288V30.1712C35.9665 35.5007 31.6306 39.8366 26.3011 39.8366C20.9716 39.8366 16.6357 35.5007 16.6357 30.1712ZM21.4684 45.6358C22.0029 45.6358 22.4349 45.2037 22.4349 44.6692V41.0931C23.646 41.5232 24.9441 41.7696 26.3011 41.7696C27.6581 41.7696 28.9562 41.5232 30.1672 41.0931V44.6692C30.1672 45.2037 30.5993 45.6358 31.1338 45.6358H32.889C32.4889 46.7579 31.4257 47.5689 30.1672 47.5689H22.4349C21.1765 47.5689 20.1133 46.7579 19.7132 45.6358H21.4684ZM30.1672 49.5019C32.4889 49.5019 34.4335 47.8569 34.8965 45.6706C35.5972 45.7266 36.2777 45.8542 36.933 46.0398V54.3346H15.6692V46.0398C16.3254 45.8533 17.0059 45.7266 17.7057 45.6706C18.1686 47.8569 20.1133 49.5019 22.4349 49.5019H30.1672ZM7.93686 56.2677C7.93686 52.1454 10.2981 48.5683 13.7361 46.8053V62.0669H7.93686V56.2677ZM38.8661 62.0669V46.8053C41.8391 48.3295 43.9965 51.2127 44.528 54.6304C43.6698 54.6101 42.8095 54.5231 41.9561 54.353L41.5762 56.2484C42.6017 56.4533 43.635 56.5509 44.6653 56.5644V62.0669H38.8661ZM48.9915 62.0669L51.779 55.0982L53.3873 54.409L54.899 54.9764L57.7358 62.0669H48.9915ZM58.8734 50.1089C58.5883 51.4379 57.3965 52.4015 56.0385 52.4015H55.3765L57.9861 49.1395C58.1224 48.9674 58.1968 48.7558 58.1968 48.5354V46.6023H56.2638V48.1961L53.5526 51.5848L52.3976 49.2738V47.5689H50.4645V49.5019C50.4645 49.6517 50.4993 49.8006 50.566 49.934L51.8003 52.4015H51.4311H50.6897C49.3317 52.4015 48.139 51.4379 47.8539 50.1089L45.8609 40.8031H60.8664L58.8734 50.1089ZM53.3641 38.87H50.2867C50.3949 38.5665 50.4645 38.2437 50.4645 37.9035C50.4645 37.8001 50.4471 37.6966 50.4143 37.598L50.0808 36.5967C50.2432 36.6827 50.4104 36.7581 50.5892 36.8123C50.9507 38.0021 52.0574 38.87 53.3641 38.87ZM53.3641 38.87C54.4505 38.87 55.3919 38.265 55.8887 37.3786C56.3295 37.6918 56.8002 38.176 57.0495 38.87H53.3641ZM21.4684 27.5132C20.5357 27.5132 19.777 28.2719 19.777 29.2046C19.777 30.1373 20.5357 30.8961 21.4684 30.8961C22.4011 30.8961 23.1599 30.1373 23.1599 29.2046C23.1599 28.2719 22.4011 27.5132 21.4684 27.5132ZM21.2268 29.2046C21.2268 29.0712 21.335 28.963 21.4684 28.963C21.6018 28.963 21.7101 29.0712 21.7101 29.2046C21.7101 29.4704 21.2268 29.4704 21.2268 29.2046ZM31.1338 30.8961C32.0665 30.8961 32.8253 30.1373 32.8253 29.2046C32.8253 28.2719 32.0665 27.5132 31.1338 27.5132C30.2011 27.5132 29.4424 28.2719 29.4424 29.2046C29.4424 30.1373 30.2011 30.8961 31.1338 30.8961ZM31.1338 28.963C31.2672 28.963 31.3755 29.0712 31.3755 29.2046C31.3755 29.4704 30.8922 29.4704 30.8922 29.2046C30.8922 29.0712 31.0004 28.963 31.1338 28.963ZM28.4757 34.0371H29.9255C29.9255 36.0349 28.2989 37.6616 26.301 37.6616C24.3032 37.6616 22.6765 36.0349 22.6765 34.0371H24.1263C24.1263 35.2356 25.1025 36.2118 26.301 36.2118C27.4995 36.2118 28.4757 35.2356 28.4757 34.0371Z" fill="#353925"/>
</svg>
