<svg width="71" height="71" viewBox="0 0 71 71" fill="none" xmlns="http://www.w3.org/2000/svg">
<path d="M14.5546 62.4366C13.399 63.7936 11.793 64.6732 10.0416 64.9081L10.2981 66.9918C12.5104 66.7133 14.5475 65.6266 16.0293 63.9342L18.7445 66.6923C19.0403 66.9928 19.4846 67.0826 19.8714 66.92C20.2576 66.7574 20.5095 66.3743 20.5095 65.9497V56.4152L22.5184 60.156C23.1919 61.4104 24.4288 62.2489 25.8273 62.3987C25.9757 62.4146 26.1251 62.4228 26.2751 62.4228C27.5246 62.4243 28.7126 61.8709 29.5269 60.9083C30.4539 59.8093 30.7815 58.3133 30.4014 56.9183C30.0212 55.5234 28.9822 54.412 27.6301 53.954L26.8168 53.6776L63.0056 50.0943C63.3247 50.0625 63.611 49.882 63.7811 49.6055C63.9512 49.3296 63.9856 48.9891 63.874 48.6834L63.667 48.1183C62.8754 45.9473 61.9727 43.8287 60.9791 41.7609C61.8101 41.6768 62.5583 41.2142 63.0132 40.5024C63.4676 39.7905 63.5792 38.9074 63.3156 38.1027C63.1763 37.6668 63.0001 37.2401 62.8431 36.8083L65.6668 34.162C65.8793 33.963 66 33.683 66 33.3896C66 33.0963 65.8793 32.8167 65.6668 32.6178L62.8451 29.973C63.0026 29.5412 63.1753 29.115 63.3156 28.678C63.5903 27.8205 63.4444 26.8815 62.9233 26.1512C62.4023 25.4214 61.5688 24.9885 60.6812 24.987H58.2811L61.3986 21.8191C62.0514 21.1565 62.3569 20.219 62.2226 19.2913C62.0888 18.364 61.5309 17.5552 60.7186 17.1106L59.7558 16.5854H59.8002V12.3831C59.8002 11.8031 59.3373 11.3328 58.7663 11.3328H54.8445L54.1134 9.95064C53.6757 9.12546 52.8795 8.55876 51.9667 8.42234C51.0534 8.28643 50.1305 8.59671 49.4782 9.25983L46.3587 12.4272V9.38753C46.3572 8.48645 45.931 7.63972 45.2126 7.11046C44.4947 6.58119 43.5703 6.43298 42.7262 6.71146C42.297 6.85198 41.8775 7.02635 41.4524 7.19046L38.8468 4.3231C38.6463 4.11642 38.3727 4 38.0869 4C37.8012 4 37.5275 4.11642 37.3271 4.3231L34.7356 7.17149C34.309 7.01097 33.8819 6.85095 33.4487 6.70736C32.6036 6.42836 31.6782 6.57709 30.9597 7.10738C30.2408 7.63767 29.8152 8.48542 29.8152 9.38753V9.44241C28.2951 8.65056 26.7557 7.8941 25.1745 7.21457C25.1634 7.21457 25.1518 7.21457 25.1406 7.21457C25.0094 7.16123 24.8685 7.13713 24.7272 7.14328H24.6721C24.5434 7.15456 24.4177 7.18995 24.3021 7.24842C24.2894 7.2556 24.2793 7.26483 24.2667 7.27252C24.2546 7.2797 24.2546 7.27252 24.2496 7.27252C24.244 7.27252 24.2349 7.28893 24.2253 7.2956C24.1026 7.37304 23.9966 7.47561 23.9153 7.59716C23.9153 7.60639 23.9073 7.61562 23.9007 7.62536C23.8184 7.75563 23.7654 7.90333 23.7457 8.05719L19.1655 47.1361L18.5087 44.6924C18.0306 42.9118 16.4408 41.6753 14.6243 41.6701C12.8073 41.6655 11.2114 42.8938 10.7237 44.6714C10.2365 46.4494 10.9781 48.3388 12.5356 49.2886L15.7431 51.2451H6.03397C5.61594 51.2451 5.23881 51.501 5.07876 51.8939C4.91872 52.2862 5.00707 52.7375 5.30292 53.0381L11.2225 59.0513C9.3156 60.118 7.17699 60.6842 5 60.6981V62.7987C7.73335 62.7884 10.4142 62.0356 12.7638 60.6175L14.5546 62.4366ZM26.9758 55.9424C27.9174 56.2598 28.5359 57.1758 28.4889 58.1825C28.4415 59.1892 27.7402 60.0411 26.7734 60.2662C25.8061 60.4914 24.8095 60.0354 24.3354 59.1503L21.6677 54.1863L21.7565 54.1766L26.9758 55.9424ZM62.0181 32.0516L63.4449 33.3896L62.0181 34.7276C61.8217 34.2825 61.6218 33.8384 61.4082 33.4014C61.6263 32.9568 61.8197 32.5034 62.0181 32.0516ZM61.2527 39.3956C61.121 39.5823 60.9079 39.6931 60.6812 39.6916H59.9335C59.5902 39.031 59.2469 38.3704 58.8829 37.7222C59.3368 37.0555 59.7725 36.379 60.1774 35.6867C60.6201 36.6857 61.0119 37.7068 61.3512 38.7464C61.4249 38.9659 61.388 39.2084 61.2527 39.3956ZM60.6812 27.0877C60.9074 27.0882 61.12 27.1979 61.2527 27.3841C61.3855 27.5697 61.4229 27.8092 61.3532 28.0277C60.4747 30.7407 59.2504 33.325 57.7116 35.7154C56.1076 33.0619 54.3351 30.5181 52.4055 28.099C53.556 27.9887 54.6738 27.6451 55.6911 27.0877H60.6812ZM59.7381 18.9605C59.9749 19.0902 60.1375 19.3261 60.1764 19.5969C60.2152 19.8672 60.1264 20.1405 59.9366 20.3344L57.7394 22.5715C58.0201 21.6524 58.1205 20.6862 58.0352 19.7282C57.9731 19.1015 57.8696 18.4794 57.7252 17.8671L59.7381 18.9605ZM57.7323 13.4334V15.4777L56.7094 14.9187C56.6196 14.7294 56.5423 14.5356 56.4429 14.3494L55.9582 13.4334H57.7323ZM47.2801 14.4617L50.9393 10.7445C51.1297 10.5527 51.3972 10.4625 51.6628 10.5009C51.9299 10.5394 52.1621 10.7051 52.2893 10.9466L54.6208 15.3454C55.3726 16.7588 55.833 18.3127 55.9744 19.9128C56.1465 21.516 55.5518 23.1059 54.3749 24.188C53.2647 25.2204 51.7703 25.7158 50.2744 25.547C48.7462 23.8013 47.1367 22.1335 45.4469 20.5431C45.0248 18.3327 45.7114 16.0536 47.2801 14.4617ZM61.4618 48.1321L25.3517 51.7082C31.3899 48.2024 35.917 42.5266 38.0415 35.799C41.0545 25.8496 36.7884 18.1537 32.3971 13.277C45.6736 21.238 55.9148 33.5199 61.4618 48.1321ZM43.3603 8.70697C43.5758 8.63415 43.8131 8.67107 43.9974 8.80647C44.1817 8.94186 44.2912 9.1588 44.2907 9.38958V12.6647C43.0442 11.6528 41.7316 10.7286 40.3619 9.89833C41.3403 9.44959 42.3414 9.05212 43.3603 8.70697ZM38.0869 6.58017L39.4041 8.02949C38.9659 8.22899 38.5272 8.42901 38.097 8.64594C37.6639 8.42747 37.2287 8.21156 36.7864 8.01052L38.0869 6.58017ZM31.8831 9.38753C31.8836 9.15726 31.9927 8.94032 32.177 8.80595C32.3612 8.67107 32.598 8.63415 32.8136 8.70697C37.0065 10.1014 40.8763 12.3482 44.1872 15.3105C43.6849 16.3336 43.382 17.4455 43.2962 18.5856C39.7626 15.5295 35.9392 12.8365 31.8831 10.5461V9.38753ZM25.6016 9.97783C28.0381 11.6974 30.2272 13.7529 32.1053 16.0854C36.7829 21.9863 38.1147 28.4113 36.0644 35.1815C33.005 45.2817 24.5171 50.0384 20.8735 51.6652L20.7205 51.6128L25.6016 9.97783ZM15.7976 60.7288L14.5268 59.438C15.6133 58.6123 16.6215 57.6861 17.5389 56.6711C17.1264 58.0917 16.5413 59.4549 15.7976 60.7288ZM18.4416 63.4141L17.3041 62.2592C17.7312 61.5981 18.1114 60.9078 18.4416 60.1919V63.4141ZM13.5964 47.4874C12.837 47.0233 12.4761 46.1017 12.7139 45.235C12.9517 44.3683 13.7302 43.7693 14.6162 43.7713C15.5022 43.7739 16.2777 44.3765 16.511 45.2447L17.8004 50.0502L13.5964 47.4874ZM8.53003 53.3458H17.5419C16.2772 55.0951 14.7565 56.6378 13.0329 57.9199L8.53003 53.3458Z" fill="#353925"/>
</svg>
