<svg width="71" height="71" viewBox="0 0 71 71" fill="none" xmlns="http://www.w3.org/2000/svg">
<path d="M22.381 57.714H17.4286C16.7452 57.714 16.1906 57.1593 16.1906 56.4759C16.1906 55.7925 16.7452 55.2378 17.4286 55.2378H22.381C23.0644 55.2378 23.6191 55.7925 23.6191 56.4759C23.6191 57.1593 23.0644 57.714 22.381 57.714Z" fill="black"/>
<path d="M62.619 57.7144H59.5237C58.8403 57.7144 58.2857 57.1597 58.2857 56.4763C58.2857 55.7929 58.8403 55.2382 59.5237 55.2382H61.5914L63.2603 46.3437C63.238 41.7925 59.3504 37.9049 54.5714 37.9049H46.442L42.5024 55.2382H49.619C50.3024 55.2382 50.8571 55.7929 50.8571 56.4763C50.8571 57.1597 50.3024 57.7144 49.619 57.7144H40.9523C40.576 57.7144 40.2194 57.5435 39.9842 57.2489C39.7489 56.9567 39.6598 56.5704 39.744 56.2039L44.2457 36.3944C44.3744 35.8274 44.8746 35.4287 45.454 35.4287H54.5714C60.7148 35.4287 65.7142 40.4281 65.7142 46.5716L63.8348 56.7041C63.7258 57.291 63.2157 57.7144 62.619 57.7144Z" fill="black"/>
<path d="M54.5714 62.6666C51.1593 62.6666 48.381 59.8908 48.381 56.4761C48.381 53.0615 51.1593 50.2856 54.5714 50.2856C57.9836 50.2856 60.7619 53.0615 60.7619 56.4761C60.7619 59.8908 57.9836 62.6666 54.5714 62.6666ZM54.5714 52.7618C52.5236 52.7618 50.8572 54.4283 50.8572 56.4761C50.8572 58.5239 52.5236 60.1904 54.5714 60.1904C56.6193 60.1904 58.2857 58.5239 58.2857 56.4761C58.2857 54.4283 56.6193 52.7618 54.5714 52.7618Z" fill="black"/>
<path d="M27.3334 62.6666C23.9212 62.6666 21.1429 59.8908 21.1429 56.4761C21.1429 53.0615 23.9212 50.2856 27.3334 50.2856C30.7456 50.2856 33.5239 53.0615 33.5239 56.4761C33.5239 59.8908 30.7456 62.6666 27.3334 62.6666ZM27.3334 52.7618C25.2856 52.7618 23.6191 54.4283 23.6191 56.4761C23.6191 58.5239 25.2856 60.1904 27.3334 60.1904C29.3812 60.1904 31.0477 58.5239 31.0477 56.4761C31.0477 54.4283 29.3812 52.7618 27.3334 52.7618Z" fill="black"/>
<path d="M22.381 35.4283H12.4763C11.7928 35.4283 11.2382 34.8737 11.2382 34.1902C11.2382 33.5068 11.7928 32.9521 12.4763 32.9521H22.381C23.0644 32.9521 23.6191 33.5068 23.6191 34.1902C23.6191 34.8737 23.0644 35.4283 22.381 35.4283Z" fill="black"/>
<path d="M22.381 42.857H10.0001C9.31663 42.857 8.76196 42.3024 8.76196 41.619C8.76196 40.9355 9.31663 40.3809 10.0001 40.3809H22.381C23.0644 40.3809 23.6191 40.9355 23.6191 41.619C23.6191 42.3024 23.0644 42.857 22.381 42.857Z" fill="black"/>
<path d="M22.381 50.2858H7.52386C6.84043 50.2858 6.28577 49.7311 6.28577 49.0477C6.28577 48.3642 6.84043 47.8096 7.52386 47.8096H22.381C23.0644 47.8096 23.6191 48.3642 23.6191 49.0477C23.6191 49.7311 23.0644 50.2858 22.381 50.2858Z" fill="black"/>
<path d="M40.9524 57.7142H32.2858C31.6023 57.7142 31.0477 57.1596 31.0477 56.4762C31.0477 55.7927 31.6023 55.2381 32.2858 55.2381H39.9644L45.5903 30.4762H17.4286C16.7452 30.4762 16.1906 29.9215 16.1906 29.2381C16.1906 28.5547 16.7452 28 17.4286 28H47.1429C47.5193 28 47.8758 28.1709 48.1111 28.4655C48.3463 28.7577 48.4355 29.144 48.3513 29.5105L42.1608 56.7485C42.032 57.3156 41.5294 57.7142 40.9524 57.7142Z" fill="black"/>
</svg>
