<svg width="71" height="71" viewBox="0 0 71 71" fill="none" xmlns="http://www.w3.org/2000/svg">
<path fill-rule="evenodd" clip-rule="evenodd" d="M9.28599 24.9987L5.28099 48.5016C4.87722 50.8711 6.47645 53.1273 8.84589 53.531L49.2767 60.4206C51.6463 60.8244 53.9025 59.2252 54.3063 56.8558L55.0034 52.7644L56.4177 53.1287C56.537 53.1594 56.6565 53.1849 56.7759 53.2053C58.9848 53.5817 61.1576 52.203 61.7264 49.9946L68.108 25.2187C68.3983 24.091 68.2322 22.9178 67.6403 21.9151C67.0483 20.9125 66.1014 20.2003 64.9737 19.9098L25.2565 9.67996C25.1711 9.65796 25.0854 9.63858 24.9995 9.6218C24.9935 10.3985 24.9304 11.1617 24.8142 11.9072L64.4083 22.1054C64.9495 22.2447 65.404 22.5865 65.688 23.0678C65.9721 23.549 66.0518 24.1119 65.9125 24.6531L59.5309 49.4291C59.2432 50.5461 58.1 51.2212 56.9832 50.9332L55.3856 50.5217L58.6041 31.6347C59.0078 29.2652 57.4086 27.009 55.039 26.6052L20.2408 20.6754C19.5067 21.3811 18.7032 22.0152 17.8416 22.5664L54.6582 28.8401C55.7953 29.0339 56.5629 30.1167 56.3692 31.2538L55.9775 33.552L11.4221 25.9595L11.6098 24.8578C10.9199 24.9517 10.2156 25.0002 9.49997 25.0002C9.42853 25.0002 9.3572 24.9997 9.28599 24.9987ZM55.5967 35.7869L11.0412 28.1944L10.2512 32.8306L54.8067 40.4231L55.5967 35.7869ZM9.22673 51.2961L49.6576 58.1857C50.7947 58.3795 51.8776 57.612 52.0714 56.4749L54.4258 42.658L9.87036 35.0655L7.51589 48.8825C7.32212 50.0196 8.08961 51.1024 9.22673 51.2961Z" fill="#353925"/>
<path d="M49.1831 45.1832L38.4285 43.3506C37.8113 43.2454 37.2258 43.6604 37.1206 44.2776L35.925 51.294C35.8198 51.9112 36.2349 52.4967 36.852 52.6019L47.6066 54.4345C48.2238 54.5397 48.8093 54.1246 48.9145 53.5075L50.1101 46.4911C50.2153 45.8739 49.8003 45.2884 49.1831 45.1832ZM46.87 52.0092L38.3503 50.5574L39.1651 45.7759L47.6848 47.2277L46.87 52.0092Z" fill="#353925"/>
</svg>
