<svg width="71" height="71" viewBox="0 0 71 71" fill="none" xmlns="http://www.w3.org/2000/svg">
<path fill-rule="evenodd" clip-rule="evenodd" d="M13.3437 23.485C12.5855 23.693 11.8025 23.8409 11 23.9234V61.4843C11 63.4229 12.5771 65 14.5156 65H57.1718C59.1104 65 60.6875 63.4229 60.6875 61.4843V52.8509C60.6875 52.2037 60.1627 51.679 59.5156 51.679C58.8685 51.679 58.3437 52.2037 58.3437 52.8509V61.4843C58.3437 62.1305 57.818 62.6562 57.1718 62.6562H14.5156C13.8695 62.6562 13.3437 62.1305 13.3437 61.4843V23.485ZM23.8408 7.34375H57.1718C57.818 7.34375 58.3437 7.86945 58.3437 8.51562V21.2598C58.3437 21.907 58.8685 22.4316 59.5156 22.4316C60.1627 22.4316 60.6875 21.907 60.6875 21.2598V8.51562C60.6875 6.57711 59.1104 5 57.1718 5H23.2882C23.5347 5.75585 23.7208 6.539 23.8408 7.34375Z" fill="#353925"/>
<path d="M35.8442 11.3281C29.8994 11.3281 25.063 16.1646 25.063 22.1094C25.063 25.1934 26.3649 27.9787 28.4476 29.9456C28.4866 29.9873 28.5281 30.0268 28.5735 30.0628C30.4919 31.8181 33.0451 32.8905 35.8441 32.8905C38.6431 32.8905 41.1963 31.818 43.1148 30.0628C43.1601 30.0268 43.2016 29.9872 43.2406 29.9456C45.3235 27.9787 46.6255 25.1934 46.6255 22.1094C46.6255 16.1646 41.789 11.3281 35.8442 11.3281ZM35.8442 30.5469C33.9307 30.5469 32.1647 29.9056 30.7476 28.828C31.7776 27.0016 33.6996 25.8594 35.8442 25.8594C37.9889 25.8594 39.9109 27.0016 40.9408 28.828C39.5237 29.9056 37.7578 30.5469 35.8442 30.5469ZM33.9692 21.6406V20.8789C33.9692 19.8451 34.8104 19.0039 35.8442 19.0039C36.8781 19.0039 37.7192 19.8451 37.7192 20.8789V21.6406C37.7192 22.6744 36.8781 23.5156 35.8442 23.5156C34.8104 23.5156 33.9692 22.6744 33.9692 21.6406ZM42.6341 27.1113C41.7698 25.8295 40.572 24.8326 39.1814 24.2171C39.7333 23.5038 40.063 22.6102 40.063 21.6406V20.8789C40.063 18.5526 38.1705 16.6602 35.8442 16.6602C33.5179 16.6602 31.6255 18.5526 31.6255 20.8789V21.6406C31.6255 22.6102 31.9551 23.5038 32.5071 24.2171C31.1164 24.8326 29.9186 25.8295 29.0544 27.1113C28.0197 25.7105 27.4067 23.9805 27.4067 22.1094C27.4067 17.4569 31.1918 13.6719 35.8442 13.6719C40.4967 13.6719 44.2817 17.4569 44.2817 22.1094C44.2817 23.9805 43.6687 25.7105 42.6341 27.1113Z" fill="#353925"/>
<path d="M42.1724 56.3281H35.8442C35.1971 56.3281 34.6724 56.8528 34.6724 57.5C34.6724 58.1472 35.1971 58.6719 35.8442 58.6719H42.1724C42.8195 58.6719 43.3442 58.1472 43.3442 57.5C43.3442 56.8528 42.8195 56.3281 42.1724 56.3281Z" fill="#353925"/>
<path d="M42.1723 49.7656H25.5317C24.8846 49.7656 24.3599 50.2903 24.3599 50.9375C24.3599 51.5847 24.8846 52.1094 25.5317 52.1094H42.1723C42.8195 52.1094 43.3442 51.5847 43.3442 50.9375C43.3442 50.2903 42.8195 49.7656 42.1723 49.7656Z" fill="#353925"/>
<path d="M42.1723 43.2031H25.5317C24.8846 43.2031 24.3599 43.7278 24.3599 44.375C24.3599 45.0222 24.8846 45.5469 25.5317 45.5469H42.1723C42.8195 45.5469 43.3442 45.0222 43.3442 44.375C43.3442 43.7278 42.8195 43.2031 42.1723 43.2031Z" fill="#353925"/>
<path d="M21.3552 36.984C21.1374 36.766 20.835 36.6406 20.5256 36.6406C20.2173 36.6406 19.915 36.766 19.6971 36.984C19.4792 37.202 19.3538 37.5043 19.3538 37.8125C19.3538 38.1207 19.479 38.423 19.6971 38.641C19.9163 38.859 20.2173 38.9844 20.5256 38.9844C20.835 38.9844 21.1362 38.859 21.3552 38.641C21.5732 38.423 21.6987 38.1207 21.6987 37.8125C21.6987 37.5043 21.5733 37.202 21.3552 36.984Z" fill="#353925"/>
<path d="M21.3552 43.5465C21.1362 43.3285 20.835 43.2031 20.5256 43.2031C20.2173 43.2031 19.9163 43.3285 19.6971 43.5465C19.4792 43.7645 19.3538 44.0668 19.3538 44.375C19.3538 44.6832 19.479 44.9855 19.6971 45.2035C19.9163 45.4215 20.2173 45.5469 20.5256 45.5469C20.835 45.5469 21.1362 45.4215 21.3552 45.2035C21.5732 44.9855 21.6987 44.6832 21.6987 44.375C21.6987 44.0668 21.5733 43.7645 21.3552 43.5465Z" fill="#353925"/>
<path d="M21.3552 50.109C21.1362 49.891 20.835 49.7656 20.5256 49.7656C20.2173 49.7656 19.9163 49.891 19.6971 50.109C19.4792 50.327 19.3538 50.6293 19.3538 50.9375C19.3538 51.2457 19.479 51.548 19.6971 51.766C19.915 51.984 20.2173 52.1094 20.5256 52.1094C20.835 52.1094 21.1374 51.984 21.3552 51.766C21.5732 51.548 21.6987 51.2457 21.6987 50.9375C21.6987 50.6293 21.5733 50.327 21.3552 50.109Z" fill="#353925"/>
<path d="M42.1723 36.6406H25.5317C24.8846 36.6406 24.3599 37.1653 24.3599 37.8125C24.3599 38.4597 24.8846 38.9844 25.5317 38.9844H42.1723C42.8195 38.9844 43.3442 38.4597 43.3442 37.8125C43.3442 37.1653 42.8195 36.6406 42.1723 36.6406Z" fill="#353925"/>
<path d="M68.5391 20.2719C67.4006 19.6145 66.0743 19.4399 64.8042 19.7801C63.5344 20.1204 62.4729 20.9349 61.8157 22.0734L47.0686 47.6159C46.9878 47.7559 46.9368 47.9112 46.9188 48.0719L45.8808 57.37C45.8292 57.8327 46.0563 58.2821 46.4594 58.5149C46.6414 58.6199 46.8436 58.672 47.0453 58.672C47.2904 58.672 47.5346 58.5952 47.7403 58.4437L55.2736 52.8955C55.4038 52.7997 55.5128 52.6779 55.5935 52.5379L70.3405 26.9954C71.6975 24.6451 70.8894 21.6289 68.5391 20.2719ZM48.5072 54.968L49.0493 50.1127L52.4409 52.0709L48.5072 54.968ZM54.1498 50.3511L49.6843 47.7729L61.5185 27.2757L65.9839 29.8538L54.1498 50.3511ZM68.3108 25.8234L67.1557 27.8241L62.6903 25.246L63.8454 23.2452C64.1897 22.6489 64.7456 22.2223 65.4108 22.0441C66.0762 21.8657 66.7708 21.9574 67.3671 22.3017C67.9635 22.646 68.39 23.2019 68.5683 23.867C68.7465 24.5322 68.6551 25.227 68.3108 25.8234Z" fill="#353925"/>
</svg>
